<?xml version="1.0" encoding="UTF-8"?>
<svg id="Layer_1" data-name="Layer 1" xmlns="http://www.w3.org/2000/svg" width="150" height="69.17" viewBox="0 0 150 69.17">
  <defs>
    <style>
      .cls-1 {
        fill: #fff;
      }
    </style>
  </defs>
  <g>
    <rect class="cls-1" x="16.33" y="16.72" width="8.74" height="34.71"/>
    <rect class="cls-1" x="9" y="22.57" width="6.04" height="22.68"/>
    <rect class="cls-1" x="2.98" y="31.66" width="4.98" height="4.5"/>
  </g>
  <g>
    <rect class="cls-1" x="122.54" y="16.72" width="8.74" height="34.71" transform="translate(253.82 68.15) rotate(180)"/>
    <rect class="cls-1" x="132.58" y="22.89" width="6.04" height="22.68" transform="translate(271.19 68.47) rotate(180)"/>
    <rect class="cls-1" x="139.66" y="31.98" width="4.98" height="4.5" transform="translate(284.29 68.47) rotate(180)"/>
  </g>
  <rect class="cls-1" x="26.7" y="26.84" width="94.16" height="4.82"/>
  <g>
    <path class="cls-1" d="M31.18,21.9V2.9h6.52c3.21,0,3.76,2.2,3.76,4.47v10.05c0,2.27-.55,4.47-3.76,4.47h-6.52Zm6.91-14.02c0-1.49-.3-2.16-1.54-2.16h-2v13.35h2c1.24,0,1.54-.64,1.54-2.16V7.88Z"/>
    <path class="cls-1" d="M42.63,17.54V7.26c0-3.03,2.02-4.75,5.14-4.75s5.14,1.72,5.14,4.75v10.28c0,3.03-2,4.75-5.14,4.75s-5.14-1.72-5.14-4.75Zm6.91-9.66c0-1.56-.48-2.45-1.77-2.45s-1.77,.85-1.77,2.45v9.04c0,1.61,.53,2.46,1.77,2.46s1.77-.89,1.77-2.46V7.88Z"/>
    <path class="cls-1" d="M61.6,21.9l-4.38-11.27,.09,11.27h-3.1V2.9h3.26l4.47,11.29-.09-11.29h3.1V21.9h-3.35Z"/>
    <path class="cls-1" d="M66.37,9.28h-.3l1.49-2.73h-1.54V2.9h3.49v3.65l-3.14,2.73Z"/>
    <path class="cls-1" d="M73.07,21.9V5.73h-2.62V2.9h8.63v2.82h-2.64V21.9h-3.37Z"/>
    <path class="cls-1" d="M93.19,17.54c0,3.07-2.04,4.75-5.14,4.75-3.26,0-5.14-1.86-5.14-4.73v-2.41h3.37v1.74c0,1.54,.46,2.48,1.79,2.48,1.12,0,1.74-.67,1.74-2.48v-.62c0-3.28-6.91-2.32-6.91-7.55v-1.49c0-2.8,1.81-4.73,5.12-4.73s5.16,1.72,5.16,4.75v1.84h-3.37v-1.24c0-1.84-.73-2.43-1.77-2.43-1.17,0-1.77,.8-1.77,2.45v.3c0,3.46,6.91,1.84,6.91,7.62v1.74Z"/>
    <path class="cls-1" d="M101.84,21.9l-4.22-7.48v7.48h-3.37V2.9h3.37v7.43l3.56-7.43h3.42l-4.66,9.45,5.37,9.54h-3.46Z"/>
    <path class="cls-1" d="M105.19,21.9V2.9h3.37V21.9h-3.37Z"/>
    <path class="cls-1" d="M110.03,21.9V2.9h6.52c3.21,0,3.76,2.2,3.76,4.47v3.03c0,2.27-.55,4.47-3.76,4.47h-3.14v7.02h-3.37Zm6.91-14.02c0-1.49-.3-2.16-1.54-2.16h-2v6.33h2c1.24,0,1.54-.67,1.54-2.18v-2Z"/>
  </g>
  <g>
    <path class="cls-1" d="M29.88,65.02v-27.01h4.8v23h6.1v4.01h-10.9Z"/>
    <path class="cls-1" d="M41.39,65.02v-27.01h11.61v4.01h-6.82v7.05h6.62v4.01h-6.62v7.93h6.82v4.01h-11.61Z"/>
    <path class="cls-1" d="M64.2,47.53v-2.45c0-2.22-.69-3.49-2.51-3.49s-2.51,1.21-2.51,3.49v13.12c0,2.54,1.01,3.23,2.41,3.23,1.7,0,2.61-.95,2.61-3.52v-3.92h-2.54v-4.01h7.34v15.04h-3.56l-.33-2.06c-.95,1.76-2.87,2.51-5.02,2.51-3.72,0-5.71-2.22-5.71-6.04v-15.24c0-4.31,2.87-6.75,7.31-6.75s7.31,2.45,7.31,6.75v3.33h-4.8Z"/>
    <path class="cls-1" d="M75.13,65.02v-27.01h9.27c4.57,0,5.35,3.13,5.35,6.36v14.29c0,3.23-.78,6.36-5.35,6.36h-9.27Zm9.82-19.93c0-2.12-.42-3.07-2.19-3.07h-2.84v18.99h2.84c1.76,0,2.19-.91,2.19-3.07v-12.85Z"/>
    <path class="cls-1" d="M101.13,65.02l-.75-5.71h-4.67l-.75,5.71h-4.76l3.95-27.01h7.83l3.92,27.01h-4.76Zm-3.07-23.46l-1.86,13.77h3.65l-1.79-13.77Z"/>
    <path class="cls-1" d="M108.96,65.02v-8.48l-5.19-18.53h4.57l2.97,12.5,2.97-12.5h4.6l-5.19,18.76v8.25h-4.73Z"/>
  </g>
</svg>