<?xml version="1.0" encoding="utf-8"?>
<!-- Generator: Adobe Illustrator 26.5.0, SVG Export Plug-In . SVG Version: 6.00 Build 0)  -->
<svg version="1.1" id="Layer_1" xmlns="http://www.w3.org/2000/svg" xmlns:xlink="http://www.w3.org/1999/xlink" x="0px" y="0px"
	 viewBox="0 0 720 720" style="enable-background:new 0 0 720 720;" xml:space="preserve">
<g>
	<rect x="216.16" y="305.91" width="21.88" height="86.86"/>
	<rect x="197.81" y="320.55" width="15.1" height="56.76"/>
	<rect x="182.74" y="343.3" width="12.47" height="11.27"/>
</g>
<g>
	
		<rect x="481.96" y="305.91" transform="matrix(-1 -1.224647e-16 1.224647e-16 -1 985.7985 698.6713)" width="21.88" height="86.86"/>
	
		<rect x="507.09" y="321.36" transform="matrix(-1 -1.224647e-16 1.224647e-16 -1 1029.2826 699.4757)" width="15.1" height="56.76"/>
	
		<rect x="524.8" y="344.1" transform="matrix(-1 -1.224647e-16 1.224647e-16 -1 1062.0609 699.4757)" width="12.47" height="11.27"/>
</g>
<rect x="242.1" y="331.23" width="235.66" height="12.07"/>
<g>
	<path d="M253.32,318.87v-47.54h16.31c8.04,0,9.42,5.51,9.42,11.2v25.15c0,5.68-1.38,11.2-9.42,11.2H253.32z M270.61,283.79
		c0-3.73-0.75-5.4-3.85-5.4h-5v33.42h5c3.1,0,3.85-1.61,3.85-5.4V283.79z"/>
	<path d="M281.98,307.96v-25.72c0-7.58,5.05-11.89,12.86-11.89c7.87,0,12.86,4.31,12.86,11.89v25.72c0,7.58-5,11.89-12.86,11.89
		C287.03,319.85,281.98,315.54,281.98,307.96z M299.26,283.79c0-3.9-1.21-6.14-4.42-6.14c-3.1,0-4.42,2.12-4.42,6.14v22.62
		c0,4.02,1.32,6.14,4.42,6.14c3.22,0,4.42-2.24,4.42-6.14V283.79z"/>
	<path d="M329.46,318.87l-10.97-28.19l0.23,28.19h-7.75v-47.54h8.15l11.2,28.25l-0.23-28.25h7.75v47.54H329.46z"/>
	<path d="M341.4,287.29h-0.75l3.73-6.83h-3.85v-9.13h8.73v9.13L341.4,287.29z"/>
	<path d="M358.17,318.87v-40.48h-6.55v-7.06h21.59v7.06h-6.6v40.48H358.17z"/>
	<path d="M408.52,307.96c0,7.69-5.11,11.89-12.86,11.89c-8.15,0-12.86-4.65-12.86-11.83v-6.03h8.44v4.36c0,3.85,1.15,6.2,4.48,6.2
		c2.81,0,4.36-1.67,4.36-6.2v-1.55c0-8.21-17.28-5.8-17.28-18.89v-3.73c0-7.01,4.54-11.83,12.8-11.83c7.87,0,12.92,4.31,12.92,11.89
		v4.59h-8.44v-3.1c0-4.59-1.84-6.09-4.42-6.09c-2.93,0-4.42,2.01-4.42,6.14v0.75c0,8.67,17.28,4.59,17.28,19.06V307.96z"/>
	<path d="M430.17,318.87l-10.56-18.72v18.72h-8.44v-47.54h8.44v18.6l8.9-18.6h8.56l-11.66,23.66l13.44,23.89H430.17z"/>
	<path d="M438.55,318.87v-47.54h8.44v47.54H438.55z"/>
	<path d="M450.66,318.87v-47.54h16.31c8.04,0,9.42,5.51,9.42,11.2v7.58c0,5.68-1.38,11.2-9.42,11.2h-7.87v17.57H450.66z
		 M467.95,283.79c0-3.73-0.75-5.4-3.85-5.4h-5v15.85h5c3.1,0,3.85-1.67,3.85-5.45V283.79z"/>
</g>
<g>
	<path d="M250.06,426.79v-67.61h12v57.56h15.27v10.04H250.06z"/>
	<path d="M278.88,426.79v-67.61h29.07v10.04h-17.06v17.64h16.57v10.04h-16.57v19.84h17.06v10.04H278.88z"/>
	<path d="M335.95,383.02v-6.12c0-5.55-1.71-8.74-6.29-8.74c-4.41,0-6.29,3.02-6.29,8.74v32.82c0,6.37,2.53,8.08,6.04,8.08
		c4.25,0,6.53-2.37,6.53-8.82v-9.8h-6.37v-10.04h18.37v37.64h-8.9l-0.82-5.14c-2.37,4.41-7.19,6.29-12.57,6.29
		c-9.31,0-14.29-5.55-14.29-15.11v-38.13c0-10.78,7.19-16.9,18.29-16.9c11.19,0,18.29,6.12,18.29,16.9v8.33H335.95z"/>
	<path d="M363.3,426.79v-67.61h23.19c11.43,0,13.39,7.84,13.39,15.92v35.76c0,8.08-1.96,15.92-13.39,15.92H363.3z M387.88,376.9
		c0-5.31-1.06-7.67-5.47-7.67h-7.1v47.52h7.1c4.41,0,5.47-2.29,5.47-7.67V376.9z"/>
	<path d="M428.38,426.79l-1.88-14.29h-11.68l-1.88,14.29h-11.92l9.88-67.61h19.6l9.8,67.61H428.38z M420.7,368.08l-4.65,34.46h9.14
		L420.7,368.08z"/>
	<path d="M447.97,426.79v-21.23l-12.98-46.38h11.43l7.43,31.27l7.43-31.27h11.51l-12.98,46.95v20.66H447.97z"/>
</g>
</svg>
