<?xml version="1.0" encoding="utf-8"?>
<!-- Generator: Adobe Illustrator 26.5.0, SVG Export Plug-In . SVG Version: 6.00 Build 0)  -->
<svg version="1.1" id="Layer_1" xmlns="http://www.w3.org/2000/svg" xmlns:xlink="http://www.w3.org/1999/xlink" x="0px" y="0px"
	 viewBox="0 0 720 720" style="enable-background:new 0 0 720 720;" xml:space="preserve">
<style type="text/css">
	.st0{fill:#FDFDFD;}
</style>
<path d="M11.55,355.36c0.01-190.07,154.47-344.15,345.4-343.73c185.28,0.4,343.19,148.43,343.05,344.55
	c-0.14,191.63-153.05,343.2-344.58,343.96C165.7,700.88,11.54,545.37,11.55,355.36z"/>
<path class="st0" d="M301.39,458.75c0-31.15-0.27-62.31,0.2-93.45c0.11-7.37-2.15-9.02-8.96-8.57c-8.97,0.6-18.01-0.01-27.01,0.21
	c-3.87,0.1-4.98-1.3-4.96-5.07c0.13-24.09,0.13-48.19,0-72.28c-0.02-3.59,1.26-4.57,4.65-4.51c9.49,0.17,19-0.25,28.47,0.17
	c5.57,0.25,7.52-1.15,7.44-7.15c-0.2-15.31-1.37-30.72,1.05-45.93c6.81-42.77,34.74-67.61,78.28-69.05
	c21.39-0.71,42.83,0.03,64.25-0.15c4.43-0.04,5.19,1.72,5.16,5.59c-0.15,19.71-0.24,39.43,0.05,59.14c0.07,4.9-1.85,5.5-5.98,5.43
	c-12.41-0.23-24.83-0.14-37.24-0.07c-14.26,0.09-20.33,6.16-20.53,20.53c-0.12,8.76,0.18,17.53-0.11,26.28
	c-0.14,4.19,1.23,5.4,5.38,5.35c17.77-0.2,35.54,0.04,53.3-0.17c4.56-0.05,6.37,0.73,5.81,5.97c-2.46,23.23-4.65,46.48-6.52,69.76
	c-0.41,5.15-2.22,6.3-7.06,6.2c-15.08-0.31-30.19,0.26-45.26-0.28c-6.81-0.24-8.92,1.24-8.88,8.55c0.34,62.3,0.1,124.61,0.33,186.91
	c0.02,6.38-1.17,8.68-8.18,8.52c-22.14-0.51-44.3-0.46-66.44-0.02c-6.37,0.13-7.44-1.89-7.39-7.74
	C301.55,521.54,301.39,490.14,301.39,458.75z"/>
</svg>
