<?xml version="1.0" encoding="utf-8"?>
<!-- Generator: Adobe Illustrator 26.5.0, SVG Export Plug-In . SVG Version: 6.00 Build 0)  -->
<svg version="1.1" id="Layer_1" xmlns="http://www.w3.org/2000/svg" xmlns:xlink="http://www.w3.org/1999/xlink" x="0px" y="0px"
	 viewBox="0 0 720 720" style="enable-background:new 0 0 720 720;" xml:space="preserve">
<style type="text/css">
	.st0{fill:#010101;}
	.st1{fill:#FEFEFE;}
	.st2{fill:#0B0B0B;}
	.st3{fill:#232323;}
	.st4{fill:#1B1B1B;}
	.st5{fill:#B6B6B6;}
	.st6{fill:#373737;}
	.st7{fill:#767676;}
	.st8{fill:#1A1A1A;}
	.st9{fill:#1D1D1D;}
	.st10{fill:#B9B9B9;}
	.st11{fill:#6F6F6F;}
	.st12{fill:#535353;}
	.st13{fill:#676767;}
	.st14{fill:#4C4C4C;}
	.st15{fill:#242424;}
	.st16{fill:#B8B8B8;}
</style>
<g>
	<path class="st0" d="M308.15,6.64c32.53,0,65.06,0,97.59,0c6.98,3.33,14.4,0.78,21.57,1.57c8.04-0.81,16.3,1.74,24.17-1.57
		c2.03,0,4.07,0,6.1,0c8.13,2.56,16.26,2.56,24.4,0c8.13,0,16.26,0,24.4,0c9.19,3.26,18.91,2.19,28.3,2.78
		c88.99,5.58,161.57,78.1,167.09,167.14c0.52,8.39-0.17,17.08,2.84,25.26c0,1.02,0,2.03,0,3.05c-2.51,7.12-2.51,14.23,0,21.35
		c0,3.05,0,6.1,0,9.15c-2.71,2.86-1.13,6.41-1.57,9.64c0,2.71,0,5.42,0,8.13c0.44,3.24-1.15,6.8,1.57,9.67c0,6.1,0,12.2,0,18.3
		c-3.34,10.98-0.75,22.24-1.57,33.34c0.88,10.22-1.87,20.62,1.57,30.7c0,9.15,0,18.3,0,27.45c-2.59,12.2-2.59,24.4,0,36.59
		c0,4.07,0,8.13,0,12.2c-2.28,3.05-2.28,6.1,0,9.15c0,6.1,0,12.2,0,18.3c-2.49,6.1-2.49,12.2,0,18.3c0,4.07,0,8.13,0,12.2
		c-1.92,2.03-1.92,4.07,0,6.1c0,5.08,0,10.17,0,15.25c-4.19,25.82-4.12,52.25-14.88,77.07c-29.16,67.22-80.85,104.76-152.4,112.89
		c-53.41,6.07-107.42,3.75-161.2,3.65c-56.84-0.1-113.68-0.13-170.52-1.38c-106.33-2.34-186-84.09-187.43-190.67
		c-1.13-83.76-1.74-167.52-0.75-251.26c0.41-34.78-1.86-69.99,7.84-104.35C45.21,75.87,90.36,31.21,161.46,12.89
		c16.81-4.33,34.15-4.17,51.36-4.68c8.38-0.8,16.96,1.73,25.19-1.57c6.1,0,12.2,0,18.3,0c4.07,2.43,8.13,2.43,12.2,0
		c6.1,0,12.2,0,18.3,0C293.92,9.15,301.04,9.15,308.15,6.64z"/>
	<path class="st1" d="M704.6,201.82c-6.81-14.74-5.47-31.04-8.81-46.49C679.04,77.86,616.98,21.54,538.04,12.19
		c-10.53-1.25-21.86,0.4-31.66-5.54c63.02,0,126.05,0.15,189.07-0.2c7.63-0.04,9.4,1.72,9.35,9.35
		C704.44,77.8,704.6,139.81,704.6,201.82z"/>
	<path class="st2" d="M704.6,409.19c-4.86-12.2-4.86-24.4,0-36.59C704.6,384.79,704.6,396.99,704.6,409.19z"/>
	<path class="st3" d="M701.7,314.6c1.39-11.13-3.63-22.81,2.9-33.49c0,11.18,0,22.36,0,33.55
		C703.61,316.08,702.64,315.99,701.7,314.6z"/>
	<path class="st4" d="M701.7,314.6c0.97,0.03,1.93,0.05,2.9,0.05c0,10.17,0,20.33,0,30.5C698.4,335.46,702.81,324.77,701.7,314.6z"
		/>
	<path class="st5" d="M213.44,9.24c0.16-0.86,0.22-1.72,0.18-2.59c8.13,0,16.26,0,24.4,0C230.38,12.76,221.68,8.87,213.44,9.24z"/>
	<path class="st6" d="M451.48,6.64c-7.45,6.24-16.14,1.74-24.18,2.78c-1.13-0.54-1.53-1.13-1.22-1.77c0.32-0.67,0.66-1.01,1.01-1.01
		C435.22,6.64,443.35,6.64,451.48,6.64z"/>
	<path class="st7" d="M481.98,6.64c-8.13,5.05-16.26,4.34-24.4,0C465.71,6.64,473.85,6.64,481.98,6.64z"/>
	<path class="st8" d="M308.15,6.64c-7.12,4.8-14.23,4.81-21.35,0C293.92,6.64,301.04,6.64,308.15,6.64z"/>
	<path class="st9" d="M427.09,6.64c0.02,0.93,0.09,1.86,0.21,2.79c-7.21-0.74-15,3.03-21.56-2.79
		C412.85,6.64,419.97,6.64,427.09,6.64z"/>
	<path class="st10" d="M704.6,226.21c-4.59-7.12-5.4-14.23,0-21.35C704.6,211.98,704.6,219.1,704.6,226.21z"/>
	<path class="st11" d="M704.6,467.13c-5.13-6.1-4.44-12.2,0-18.3C704.6,454.93,704.6,461.03,704.6,467.13z"/>
	<path class="st12" d="M268.51,6.64c-4.07,4.18-8.13,4.98-12.2,0C260.38,6.64,264.44,6.64,268.51,6.64z"/>
	<path class="st7" d="M702.03,244.43c-0.05-3.28-2.11-7.13,2.57-9.07c0,3.05,0,6.1,0,9.15C703.7,245.87,702.84,245.92,702.03,244.43
		z"/>
	<path class="st13" d="M702.03,244.43c0.86,0.01,1.71,0.03,2.57,0.08c0,3.05,0,6.1,0,9.15c-0.95,1.43-1.81,1.37-2.57-0.17
		C702.03,250.47,702.03,247.45,702.03,244.43z"/>
	<path class="st14" d="M702.03,253.49c0.86,0.05,1.71,0.1,2.57,0.17c0,3.05,0,6.1,0,9.15C700.57,260.58,701.68,256.93,702.03,253.49
		z"/>
	<path class="st15" d="M704.6,430.53c-4.05-3.05-3.91-6.1,0-9.15C704.6,424.44,704.6,427.48,704.6,430.53z"/>
	<path class="st16" d="M704.6,485.43c-4.56-2.03-4.34-4.07,0-6.1C704.6,481.36,704.6,483.39,704.6,485.43z"/>
	<path class="st1" d="M79.66,348.79c-0.08-50.27,0.13-100.51,2.73-150.77c3.86-74.64,53.47-123.93,129.96-127.17
		c99.5-4.22,199-4.41,298.49,0.03c77.66,3.46,126.22,52.48,129.52,130.76c4.17,98.99,4.15,197.99,0.07,296.98
		c-3.21,77.95-53.57,127.24-131.69,130.24c-99.01,3.8-197.97,3.92-296.97-0.08c-75.97-3.07-125.64-53.04-129.48-129.22
		C79.74,449.29,79.95,399.06,79.66,348.79z"/>
	<path class="st0" d="M360.49,525.32c-97.27,0.02-174.54-78.11-174.6-176.53c-0.06-97.27,78.33-174.84,176.5-174.66
		c97.38,0.18,174.65,78.27,174.76,176.62C537.25,447.78,458.81,525.3,360.49,525.32z"/>
	<path class="st0" d="M503.32,166.48c0.28-22.46,20-41.58,42.2-40.9c21.91,0.67,40.27,19.62,40.14,41.43
		c-0.13,22.28-20.07,41.61-42.21,40.9C521.57,207.22,503.05,188.1,503.32,166.48z"/>
	<path class="st1" d="M247.16,348.42c0.04-62.55,51.38-113.11,114.75-113.01c63.3,0.1,113.99,51.65,113.88,115.82
		c-0.1,62.26-51.9,113.06-115.09,112.85C296.89,463.86,247.13,413.18,247.16,348.42z"/>
</g>
</svg>
