<?xml version="1.0" encoding="utf-8"?>
<!-- Generator: Adobe Illustrator 26.5.0, SVG Export Plug-In . SVG Version: 6.00 Build 0)  -->
<svg version="1.1" id="Layer_1" xmlns="http://www.w3.org/2000/svg" xmlns:xlink="http://www.w3.org/1999/xlink" x="0px" y="0px"
	 viewBox="0 0 720 720" style="enable-background:new 0 0 720 720;" xml:space="preserve">
<style type="text/css">
	.st0{fill:#FDFDFD;}
</style>
<path d="M274.81,20.77c6.86-1.56,13.71-3.11,20.57-4.67c1.29,0.5,2.32-0.03,3.29-0.82c4.44-0.95,8.94-1.52,13.44-2.13l-0.13,0.08
	c2.8-1.97,6.16,0.09,9.04-1.26c6.93-0.66,13.92-0.69,20.76-2.18c1.74-0.05,3.48-0.11,5.21-0.16c20.57-0.35,41.07,0.67,61.48,3.31
	c4.88-1.8,9.39,1.08,14.12,1.11c9.59,1.74,19.16,3.56,28.52,6.34c6.23,1.94,12.54,3.59,18.7,5.76c5.07,2.04,10.43,3.26,15.44,5.46
	c1.93,0.91,3.97,1.54,5.93,2.39c7.94,3.75,16.27,6.64,23.98,10.91c5,2.89,10.31,5.17,15.39,7.88c9.07,5.92,18.66,11.01,27.36,17.5
	c2.66,1.86,5.19,3.92,7.92,5.69c4.95,3.38,9.32,7.51,14.21,10.97c3.88,3.9,8.41,7.08,12.37,10.9c3.53,2.75,6.88,5.71,9.98,8.94
	c4.38,4.78,9.54,8.84,13.29,14.21c3.11,3.15,5.72,6.74,8.71,9.99c3.19,3.51,6.03,7.3,8.98,11c4.82,5.48,8.82,11.57,12.82,17.65
	c0.98,1.76,2.37,3.22,3.53,4.85c4.01,6.84,8.38,13.46,12.39,20.3c2.48,4.84,4.85,9.73,7.36,14.55c1.1,2.36,2.25,4.7,3.53,6.98
	c3.81,8.41,7.49,16.87,10.98,25.41c4.67,13.3,8.81,26.76,12.44,40.38c2.36,8.73,3.73,17.66,5.22,26.56
	c1.19,4.88,1.39,9.92,2.34,14.85c2.09,17.17,2.86,34.39,2.52,51.69c-0.17,8.74-2.58,17.24-2.31,25.98
	c-0.57,3.77-0.99,7.56-1.44,11.35c-1.89,7.94-2.47,16.12-4.4,24.05c-1.99,6.95-3.32,14.08-5.48,20.99c-0.99,2.6-1.41,5.37-2.16,8.03
	c-1.68,4.32-3.31,8.67-4.57,13.14c-2.69,8.3-6.14,16.29-9.8,24.2c-1.55,3.66-3.27,7.26-4.7,10.97
	c-5.9,10.25-10.67,21.13-17.29,30.98c-2.82,3.91-5.03,8.23-7.97,12.06c-2.39,3.82-5,7.48-7.74,11.04
	c-4.49,6.02-9.12,11.95-14.07,17.61c-1.24,1.2-2.52,2.38-3.56,3.78c-5.54,7.34-11.78,14.05-18.41,20.4c-0.9,0.88-1.8,1.76-2.67,2.66
	c-6.36,6-13.5,11.11-19.74,17.26c-2.16,1.25-3.84,3.1-5.78,4.63c-5.43,4.07-10.72,8.31-16.34,12.12c-5.13,3.14-9.93,6.79-15.09,9.9
	c-2.36,1.48-4.83,2.78-7.09,4.42c-6.65,4.11-13.76,7.36-20.65,11.03c-5.21,3.07-10.93,5.01-16.37,7.58
	c-1.69,0.78-3.35,1.63-5.05,2.4c-7.99,2.9-15.76,6.36-23.91,8.84c-6.15,2.01-12.35,3.86-18.56,5.69c-7.27,1.84-14.51,3.8-21.88,5.26
	c-0.57,0.18-1.16,0.3-1.75,0.39c-8.7,1.45-17.39,2.91-26.13,4.14c-4.09,0.74-8.32,0.13-12.38,1.22
	c-14.17,2.36-28.44,1.21-42.67,1.39c-1.67,0.14-3.32-0.08-4.95-0.39c-9.33-1.61-18.82-1.9-28.19-3.12
	c-4.43-0.9-8.85-1.85-13.34-2.45c-3.68-0.96-7.51-1.15-11.21-2.04c-4.68-1.48-9.61-1.93-14.28-3.45
	c-8.41-2.42-16.79-4.98-25.16-7.53c-5.88-2.26-11.83-4.32-17.65-6.75c-3.42-1.4-6.77-2.96-10.13-4.52
	c-4.14-1.64-8.11-3.64-12.11-5.58c-8.11-4.19-16.34-8.16-24.11-12.98c-1.44-1.05-3.06-1.79-4.61-2.67
	c-6.14-3.98-12.23-8.05-18.43-11.96c-3.83-3.64-8.56-6.15-12.46-9.7c-3.02-2.19-5.73-4.78-8.81-6.89
	c-5.61-5.41-11.82-10.14-17.63-15.33c-7.12-7.17-14.39-14.2-20.69-22.13c-1.48-2.6-3.71-4.55-5.8-6.62
	c-4.02-5.12-8.3-10.04-12.12-15.32c-3.15-4.47-6.25-8.98-9.63-13.29c-2.1-2.93-3.37-6.45-6.31-8.78c-0.8-0.94-1.3-2.04-1.72-3.18
	c-0.54-1.78-1.3-3.46-2.45-4.93c-0.28-0.37-0.52-0.77-0.74-1.17c-0.79-1.68-1.67-3.3-2.84-4.76c-0.29-0.39-0.54-0.81-0.78-1.23
	c-1.33-2.67-2.61-5.37-4.01-8c-0.77-1.59-1.55-3.18-2.43-4.72c-3.54-5.85-5.81-12.3-8.74-18.44c-2.89-6.16-5.24-12.54-7.72-18.86
	c-2.11-6.69-4.43-13.3-6.62-19.97c-2.86-10.15-5.54-20.33-7.73-30.65c-1.01-4.42-1.4-8.95-2.31-13.4
	c-2.29-11.52-2.81-23.26-4.36-34.87c-0.46-2.64-0.56-5.29-0.42-7.96c-0.01-8.5-0.34-16.99,0.01-25.49c0-5.92,1.19-11.74,1.48-17.64
	c1.42-9.54,2.45-19.15,4.14-28.65c1.11-5.89,2.22-11.79,3.63-17.62c3.31-13.58,7.32-26.95,11.76-40.2c0.69-2.07,1.5-4.09,2.41-6.06
	c2.9-7.02,6.04-13.94,8.98-20.95c2.02-3.67,3.83-7.44,5.63-11.21c2.02-3.61,3.69-7.39,5.63-11.04c4.65-7.66,9.06-15.46,14.01-22.94
	c0.45-0.61,0.94-1.19,1.41-1.79c4.93-7.25,9.92-14.46,15.33-21.37c2.4-2.54,4.39-5.42,6.65-8.07c4.37-4.36,8.2-9.19,12.09-13.96
	c3.06-3.64,6.64-6.77,9.88-10.23c3.74-3.98,7.93-7.47,12.08-11c3.22-3.1,7.06-5.5,10.06-8.85c5.86-4.26,11.14-9.29,17.27-13.2
	c1.41-1.06,2.59-2.39,4.06-3.37c8.07-4.82,15.64-10.44,23.76-15.19c1.57-0.88,3.21-1.62,4.77-2.51c6.1-3.56,12.4-6.73,18.67-9.96
	c12.63-6.56,25.87-11.52,39.53-15.44C257.79,25.81,266.3,23.29,274.81,20.77z"/>
<path class="st0" d="M256.86,466.59c-27.54-2.33-50.14-14.33-68.33-34.96c-8.06-9.14-13.84-19.59-18.35-30.86
	c-1.48-3.7-0.78-4.44,3.06-3.81c11.29,1.85,22.57,1.27,33.8-0.74c1.62-0.29,3.28-0.39,4.89-1.85c-26.05-6.85-47-20.79-61.94-43.19
	c-11.45-17.16-17.16-36.06-17.15-57.5c12.27,5.61,24.17,10.58,37.23,11.57c2.57,0.82,5.13,0.25,7.39,0.1
	c-0.87,0.27-1.26-0.66-1.79-1.36c-10.72-8.38-20.15-17.9-27.08-29.75c-17.97-30.71-19.83-62.42-5.6-94.93
	c3.96-9.04,4.54-8.91,10.91-1.65c26.83,30.63,58.69,54.56,95.44,72c3.13,1.48,6.4,2.66,9.61,3.97c1.44,0.84,3.08,1.26,4.53,2.08
	c28.83,11.72,58.77,18.53,89.83,20.63c5.24,0.35,3.54-2.57,3.15-5.03c-4.94-31.19,2.27-59.17,22.43-83.53
	c36.57-44.19,104.14-48.68,146.15-9.63c4.53,4.21,8.49,5.23,14.43,3.65c17.2-4.58,33.81-10.5,49.4-19.14
	c1.73-0.96,3.5-1.85,6.75-3.55c-7.52,22.94-20.87,39.52-38.93,52.66c-0.69,0.53-2.11,1.03-1.6,1.85c0.89,1.44,2.48,0.99,3.86,0.4
	c15.48-2.1,30.22-6.91,44.82-12.25c0.85-0.53,1.83-0.72,2.26,0.31c0.45,1.12-0.46,2.02-1.1,2.89
	c-11.68,17.96-26.97,32.42-43.92,45.24c-1.94,1.47-2.15,3.14-2.09,5.21c1.08,37.75-5.24,74.37-18.09,109.75
	c-8.31,22.88-19.42,44.45-33.01,64.76c-23.1,34.54-51.95,63.14-87.46,84.65c-33.55,20.32-69.97,32.65-108.95,37.84
	c-33.72,4.49-67.12,3.53-100.38-3.15c-33.82-6.8-65.38-19.4-94.63-37.75c0.79-2.96,2.85-1.39,4.51-1.25
	c51.88,3.2,98.89-10.16,140.59-41.47C261.38,465.1,258,468.21,256.86,466.59z"/>
</svg>
